<svg width="160" height="90" viewBox="0 0 160 90" fill="none" xmlns="http://www.w3.org/2000/svg">
<path d="M0 0H160V90H0V0Z" fill="white"/>
<path fill-rule="evenodd" clip-rule="evenodd" d="M86.4095 28.184C88.0499 26.2827 89.1557 23.6347 88.8531 21C86.4891 21.09 83.6292 22.5101 81.9342 24.4091C80.4121 26.0943 79.0834 28.787 79.4406 31.37C82.0775 31.5657 84.7691 30.0874 86.4095 28.184ZM92.3227 44.9062C92.3887 51.7169 98.5567 53.9825 98.625 54.0117C98.5749 54.1715 97.6398 57.2399 95.376 60.4124C93.4171 63.1528 91.3853 65.8822 88.1841 65.9407C85.0398 65.9969 84.0274 64.1543 80.4303 64.1543C76.8355 64.1543 75.7115 65.882 72.7356 65.9967C69.6459 66.107 67.2911 63.0317 65.3185 60.3003C61.2823 54.7136 58.1994 44.5127 62.3402 37.6278C64.397 34.2101 68.0714 32.0425 72.0621 31.9885C75.095 31.9323 77.9594 33.9441 79.8137 33.9441C81.668 33.9441 85.149 31.5254 88.8075 31.8809C90.3387 31.9416 94.6389 32.4724 97.3987 36.3446C97.1757 36.4774 92.2681 39.2138 92.3227 44.9062Z" fill="black"/>
</svg>
