<svg width="160" height="90" viewBox="0 0 160 90" fill="none" xmlns="http://www.w3.org/2000/svg">
<path d="M0 0H160V90H0V0Z" fill="#1877F2"/>
<path d="M80 25.08C69 25.08 60 34.06 60 45.12C60 55.12 67.32 63.42 76.88 64.92V50.92H71.8V45.12H76.88V40.7C76.88 35.68 79.86 32.92 84.44 32.92C86.62 32.92 88.9 33.3 88.9 33.3V38.24H86.38C83.9 38.24 83.12 39.78 83.12 41.36V45.12H88.68L87.78 50.92H83.12V64.92C87.8328 64.1756 92.1244 61.771 95.2198 58.14C98.3152 54.5092 100.011 49.8912 100 45.12C100 34.06 91 25.08 80 25.08Z" fill="white"/>
</svg>
