<svg width="160" height="90" viewBox="0 0 160 90" fill="none" xmlns="http://www.w3.org/2000/svg">
<path d="M0 0H160V90H0V0Z" fill="white"/>
<path fill-rule="evenodd" clip-rule="evenodd" d="M67.6818 45.5C67.6818 44.071 67.9192 42.701 68.3428 41.416L60.9282 35.754C59.4832 38.688 58.669 41.994 58.669 45.5C58.669 49.003 59.4822 52.307 60.9252 55.239L68.3357 49.566C67.9162 48.287 67.6818 46.922 67.6818 45.5Z" fill="#FBBC05"/>
<path fill-rule="evenodd" clip-rule="evenodd" d="M80.7003 32.5C83.8047 32.5 86.6087 33.6 88.8118 35.4L95.2209 29C91.3153 25.6 86.3082 23.5 80.7003 23.5C71.9939 23.5 64.5113 28.479 60.9282 35.754L68.3428 41.416C70.0512 36.23 74.9211 32.5 80.7003 32.5Z" fill="#EB4335"/>
<path fill-rule="evenodd" clip-rule="evenodd" d="M80.7003 58.5C74.9211 58.5 70.0512 54.77 68.3428 49.584L60.9282 55.245C64.5113 62.521 71.9939 67.5 80.7003 67.5C86.0739 67.5 91.2042 65.592 95.0546 62.017L88.0167 56.576C86.0308 57.827 83.5303 58.5 80.7003 58.5Z" fill="#34A853"/>
<path fill-rule="evenodd" clip-rule="evenodd" d="M101.73 45.5C101.73 44.2 101.53 42.8 101.229 41.5H80.7003V50H92.517C91.9262 52.898 90.3179 55.126 88.0167 56.576L95.0546 62.017C99.0994 58.263 101.73 52.671 101.73 45.5Z" fill="#4285F4"/>
</svg>
