<svg width="160" height="90" viewBox="0 0 160 90" fill="none" xmlns="http://www.w3.org/2000/svg">
<path d="M0 0H160V90H0V0Z" fill="#FFD400"/>
<path d="M49.421 14.4148H110.594V75.5856H49.421V14.4148Z" fill="white"/>
<path d="M106.523 39.8428C106.42 41.7491 105.814 44.1236 105.28 45.7097C103.129 52.1016 100.635 56.0615 94.8611 56.0615C93.1615 56.0615 90.1426 55.6112 89.0338 52.5872L88.7686 51.8682L88.2954 52.4679C86.4901 54.7571 83.8062 56.0774 80.9332 56.0904C78.7296 56.1009 76.9576 55.3624 75.8133 53.9562L75.4984 53.5678L75.1645 53.9362C73.9399 55.2872 71.8094 56.0615 69.3176 56.0615C67.3614 56.0615 65.6721 55.3995 64.5607 54.1927L64.2581 53.8617L63.9422 54.182C62.7071 55.428 60.7607 56.0564 58.3124 56.0009C55.3416 55.9297 53.5334 54.2707 53.4756 51.5636C53.3856 47.3893 57.4252 38.6056 59.0984 35.9359C60.1853 34.1523 61.6776 33.2874 63.664 33.2874C65.0169 33.2874 65.9404 33.5703 66.4914 34.1523C66.9906 34.6826 67.0903 35.1294 67.1338 36.2029L67.1926 37.5913L67.925 36.4111C69.6987 33.5526 72.6365 33.1592 75.5493 33.1592C77.5742 33.1592 79.3407 33.903 80.0499 35.0566L80.3124 35.4802L80.6915 35.1579C82.192 33.8817 84.3101 33.1786 86.6528 33.1786C89.2106 33.1786 91.0702 33.8142 92.1794 35.0708C92.4301 35.3556 92.5973 35.5549 92.8286 36.0409L93.1136 36.639L93.5424 36.1334C95.1638 34.2125 97.3818 33.2391 100.133 33.2391C102.312 33.2391 103.964 33.8175 105.046 34.9585C106.405 36.3915 106.599 38.4065 106.523 39.8428ZM49.421 75.5856H110.594V14.4148H49.421V75.5856Z" fill="#FFFF00"/>
<path d="M108.245 42.1906C107.968 44.4154 106.462 48.54 105.665 50.1878C103.518 54.6073 100.652 58.0034 95.1329 58.0034C92.1837 58.0034 89.7573 57.0603 88.339 55.2555C86.2619 57.0744 83.6898 58.0286 80.922 58.0286C78.787 58.0286 76.9029 57.413 75.4664 56.2735C73.8788 57.3913 71.7393 58.0144 69.3657 58.0144C67.3846 58.0144 65.602 57.4714 64.2057 56.4658C62.6625 57.4892 60.6398 57.9987 58.2643 57.9413C54.3128 57.8486 51.5843 55.3426 51.5059 51.7044C51.4019 46.8697 55.4734 38.0218 57.393 34.9569C58.8277 32.5986 61.0205 31.3313 63.7047 31.3313C66.6194 31.3313 67.6766 32.1644 68.1954 33.2232C70.4451 31.3117 73.4267 31.2029 75.5481 31.2029C77.8924 31.2029 79.3615 31.8243 80.6121 32.821C82.3404 31.7849 84.3198 31.2475 86.68 31.2475C89.6985 31.2475 91.9379 31.9487 93.5005 33.494C95.3231 31.9757 97.6084 31.2848 100.163 31.2848C103.543 31.2848 105.766 32.5042 107.072 34.3198C108.911 36.8829 108.584 39.4637 108.245 42.1906ZM49.421 75.5856H110.594V14.4148H49.421V75.5856Z" fill="#FF0000"/>
<path d="M49.8525 14.8544H110.147V75.1477H49.8525V14.8544ZM49 76.0002H111V14H49V76.0002Z" fill="black"/>
<path d="M108.217 31.219C108.022 31.2188 107.829 31.2573 107.648 31.332C107.468 31.4068 107.304 31.5165 107.166 31.6547C107.028 31.793 106.919 31.9571 106.845 32.1377C106.77 32.3183 106.732 32.5118 106.733 32.7071C106.733 32.9021 106.771 33.0952 106.845 33.2754C106.92 33.4556 107.029 33.6193 107.167 33.7571C107.305 33.8949 107.469 34.004 107.649 34.0783C107.829 34.1526 108.022 34.1906 108.217 34.19C109.042 34.19 109.705 33.5297 109.705 32.7071C109.706 32.5116 109.668 32.3179 109.593 32.1371C109.518 31.9564 109.409 31.7922 109.271 31.654C109.132 31.5157 108.968 31.4061 108.787 31.3315C108.607 31.2568 108.413 31.2186 108.217 31.219ZM108.217 31.5127C108.878 31.5127 109.415 32.0465 109.415 32.7071C109.415 33.364 108.878 33.9013 108.217 33.9013C107.559 33.9013 107.028 33.364 107.028 32.7071C107.028 32.0467 107.559 31.5127 108.217 31.5127ZM108.974 33.4812L108.796 33.1716C108.641 32.8994 108.597 32.8584 108.466 32.8103V32.8033C108.726 32.7731 108.882 32.6039 108.882 32.3724C108.882 32.1287 108.726 31.9436 108.396 31.9436H107.63V33.4814H107.947V32.8513H108.004C108.139 32.8513 108.194 32.8656 108.257 32.9279C108.317 32.9902 108.412 33.12 108.467 33.2304L108.59 33.4814L108.974 33.4812ZM107.947 32.6039V32.1838H108.231C108.442 32.1838 108.552 32.2568 108.552 32.3922C108.552 32.5005 108.483 32.6037 108.269 32.6037L107.947 32.6039ZM100.542 39.72C100.478 41.3042 98.1569 47.639 97.3327 49.0361C96.9753 49.643 96.5729 50.1432 95.8467 50.1414C95.2132 50.1414 94.9317 49.6927 94.9139 49.1803C94.8671 47.7508 97.491 40.585 98.3883 39.4191C98.787 38.8047 99.2319 38.7055 99.741 38.7125C100.486 38.7216 100.56 39.2592 100.542 39.72ZM104.771 42.3063C104.244 44.9317 103.059 48.0373 101.77 50.3514C99.6696 54.1285 97.1191 54.6568 94.8927 54.6302C92.6679 54.6036 90.1544 53.7814 90.1366 50.3459C90.1226 47.8788 91.1866 44.3972 92.0913 42.1152C93.6646 37.9768 95.2736 34.6042 100.36 34.6647C106.292 34.7344 105.234 40.0101 104.771 42.3063ZM85.9381 38.6271C85.0784 38.6271 84.5175 39.17 84.0994 39.7573C83.1809 41.0477 81.1874 46.2219 80.8779 48.3472C80.6678 49.8035 81.2947 50.0986 81.983 50.0986C83.0849 50.0986 84.32 48.9329 84.7418 47.0087C84.7418 47.0087 82.6431 46.9569 83.222 45.0966C83.7827 43.2901 84.8508 42.9002 86.6181 42.8272C90.1013 42.685 89.7563 45.2567 89.4783 46.6274C88.5736 51.0809 85.4041 54.6585 80.92 54.6585C77.8505 54.6585 75.9462 52.9588 75.9462 49.8299C75.9462 47.601 77.0525 44.1 77.9287 42.0517C79.7951 37.6908 81.7531 34.6383 86.7405 34.6383C89.7323 34.6383 92.0929 35.7132 91.7456 38.5167C91.4928 40.5743 90.4639 41.7828 88.5938 41.9287C88.0703 41.9693 85.9293 41.9144 86.6394 39.889C86.8864 39.1824 86.9896 38.6271 85.9381 38.6271ZM70.3341 46.3381C70.1278 46.8948 69.7398 48.0573 69.4265 49.2909C70.4437 49.0381 71.2072 48.8586 72.5156 48.8922C74.0072 48.9277 74.9604 49.5474 74.9604 50.779C74.9604 53.7674 71.6577 54.645 69.3661 54.645C66.8493 54.645 64.6403 53.212 64.6403 50.4618C64.6403 47.2347 66.3882 42.3453 68.0284 39.0881C70.0442 35.0867 72.1037 34.5545 75.6492 34.5545C77.2077 34.5545 79.0026 35.2204 79.0026 36.6905C79.0026 38.7305 77.2752 39.508 75.5611 39.6079C74.8304 39.6488 73.7047 39.6896 73.0319 39.6418C73.0319 39.6418 72.4613 40.5122 71.8544 42.0589C75.0272 41.6121 76.3729 42.3332 75.837 44.1681C75.1133 46.6458 72.964 46.8096 70.3341 46.3381ZM60.2295 49.2051C63.3328 48.6661 64.1135 49.7891 64.0146 50.825C63.7237 53.9362 60.8694 54.6304 58.3918 54.5734C56.595 54.5307 54.9796 53.7088 54.9344 51.6224C54.8562 47.9735 58.578 39.5314 60.331 36.7335C61.1392 35.4041 62.1252 34.7489 63.6977 34.7489C65.1866 34.7489 65.5568 35.5124 65.5345 36.4291C65.4767 38.8726 61.5253 46.3022 60.2295 49.2051ZM100.133 32.8121C96.9291 32.8121 94.7148 34.0829 93.216 35.8558C92.9632 35.3257 92.769 35.0925 92.4984 34.786C91.272 33.3995 89.2979 32.7515 86.6513 32.7515C84.0654 32.7515 81.9093 33.5596 80.4129 34.8322C79.6352 33.5685 77.783 32.73 75.5483 32.73C72.6285 32.73 69.4484 33.1448 67.5602 36.185C67.5164 35.09 67.4159 34.5118 66.8001 33.8586C66.0525 33.0682 64.8422 32.86 63.663 32.86C61.5137 32.86 59.8975 33.7981 58.7342 35.7101C57.047 38.4065 52.9548 47.2778 53.0482 51.5727C53.106 54.3493 54.9689 56.3484 58.3008 56.4266C60.9049 56.4889 62.9465 55.7928 64.2458 54.4828C65.4109 55.7466 67.1897 56.4906 69.3169 56.4906C71.6858 56.4906 74.072 55.7807 75.4808 54.2249C76.668 55.6808 78.5342 56.5281 80.9344 56.517C84.0742 56.5031 86.8294 55.0151 88.6312 52.7329C89.617 55.4222 92.1233 56.4903 94.8609 56.4903C100.859 56.4903 103.491 52.368 105.686 45.8463C106.181 44.376 106.84 41.9252 106.95 39.8661C107.132 36.438 105.681 32.8121 100.133 32.8121Z" fill="black"/>
</svg>
