<svg width="160" height="90" viewBox="0 0 160 90" fill="none" xmlns="http://www.w3.org/2000/svg">
<path d="M0 0H78.5591H160V90H0V0Z" fill="#E90000"/>
<path fill-rule="evenodd" clip-rule="evenodd" d="M32.4414 32.9218H78.5591H127.559V56.5449H78.5591H32.4414V32.9218Z" fill="#E90000"/>
<path fill-rule="evenodd" clip-rule="evenodd" d="M44.8823 56.5449C37.4243 56.5428 32.4414 51.2152 32.4414 44.7549C32.4414 38.294 37.437 32.9049 44.8716 32.9218H115.129C122.563 32.9049 127.559 38.294 127.559 44.7549C127.559 51.2152 122.575 56.5428 115.117 56.5449H44.8823Z" fill="white"/>
<path fill-rule="evenodd" clip-rule="evenodd" d="M44.9057 35.8285C39.0014 35.8388 35.3764 39.8178 35.3764 44.739C35.3764 49.6596 38.978 53.6699 44.9057 53.6479H115.093C121.02 53.6699 124.624 49.6596 124.624 44.739C124.624 39.8178 120.999 35.8393 115.093 35.8285H44.9057Z" fill="#E90000"/>
<path fill-rule="evenodd" clip-rule="evenodd" d="M41.878 39.153H45.3129L50.0691 46.9071L50.0666 39.153H53.4755V50.2747H50.0711L45.291 42.5201V50.2747H41.8765L41.878 39.153ZM72.0159 40.2981H75.3358V41.7943H77.132V42.8927H75.3358L75.3378 50.2747H72.0159L72.0174 42.8927H70.2145V41.7953H72.0184L72.0159 40.2981ZM55.3749 42.8794H58.6923V50.2747H55.3749V42.8794ZM55.3678 39.151H58.6923V41.4247H55.3678V39.151ZM114.837 46.5176C114.837 46.5176 114.835 47.6339 114.835 48.0835C114.835 49.2618 114.145 49.7493 113.478 49.7493C112.815 49.7493 112.12 49.2618 112.12 48.0835C112.12 47.6339 112.122 46.4899 112.122 46.4899C112.122 46.4899 112.125 45.3966 112.125 44.9471C112.125 43.7733 112.817 43.2905 113.478 43.2905C114.14 43.2905 114.835 43.7733 114.835 44.9471C114.835 45.3966 114.835 46.2244 114.837 46.5227V46.5176ZM113.504 42.374C110.828 42.374 108.658 44.2336 108.658 46.5278C108.658 48.8205 110.828 50.6796 113.504 50.6796C116.183 50.6796 118.353 48.8205 118.353 46.5278C118.353 44.2336 116.183 42.374 113.504 42.374ZM104.303 39.153H107.577V50.2726H104.298L104.296 49.8472C103.028 50.6499 101.593 50.6478 100.477 50.1245C100.178 49.9835 98.2079 49.0302 98.2079 46.4586C98.2079 44.5047 100.036 42.374 102.425 42.5852C103.213 42.6559 103.771 42.945 104.303 43.2448L104.303 39.153ZM104.327 45.2182C104.327 44.0742 103.545 43.783 103.028 43.783C102.499 43.783 101.726 44.0742 101.726 45.2182C101.726 45.5955 101.728 46.5365 101.728 46.5365C101.728 46.5365 101.726 47.4566 101.726 47.8507C101.726 48.9938 102.499 49.2921 103.028 49.2921C103.545 49.2921 104.327 48.9938 104.327 47.8507V45.2182ZM66.4574 42.5375C67.6969 42.5032 70.2145 43.3217 70.1962 46.2505C70.1927 46.7692 70.1952 50.2731 70.1952 50.2731H66.8997V45.4166C66.8997 44.7713 66.2881 44.0542 65.3851 44.0542C64.4806 44.0542 63.8095 44.7713 63.8095 45.4166L63.8131 50.2731H60.5191L60.5165 42.8784L63.8126 42.8758C63.8126 42.8758 63.809 43.4714 63.8126 43.6528C64.5273 42.9646 65.4694 42.5673 66.4574 42.5375ZM93.4171 42.5375C94.6545 42.5032 97.1717 43.3217 97.1559 46.2505C97.1509 46.7692 97.1529 50.2731 97.1529 50.2731H93.8573V45.4166C93.8573 44.7713 93.2467 44.0542 92.3428 44.0542C91.4388 44.0542 90.7657 44.7713 90.7657 45.4166L90.7708 50.2731H87.4778L87.4798 42.8784L90.7708 42.8758C90.7708 42.8758 90.7657 43.4714 90.7708 43.6528C91.4858 42.9641 92.4285 42.5668 93.4171 42.5375ZM80.2227 45.4566C80.2166 44.8097 80.2298 44.3771 80.4403 44.005C80.7016 43.5498 81.178 43.333 81.6091 43.3309H81.6071C82.0413 43.333 82.5146 43.5498 82.7739 44.005C82.9844 44.3766 82.9966 44.8097 82.9915 45.4566H80.2227ZM82.9773 47.6872C82.9773 47.6872 82.9803 47.72 82.9803 48.1368C82.9803 49.4894 82.0977 49.7908 81.6091 49.7908C81.1185 49.7908 80.2201 49.4894 80.2201 48.1368C80.2201 47.7303 80.2252 46.6093 80.2252 46.6093C80.2252 46.6093 86.4721 46.6114 86.4721 46.6093C86.4721 44.3151 84.2768 42.415 81.5786 42.415C78.882 42.415 76.6943 44.2746 76.6943 46.5663C76.6943 48.861 78.882 50.7206 81.5786 50.7206C83.8167 50.7206 85.7064 49.432 86.2855 47.6842L82.9773 47.6872ZM118.584 41.7994H118.201V39.2668H119.16C119.751 39.2668 120.046 39.4877 120.046 39.9865C120.046 40.4391 119.764 40.6364 119.394 40.6841L120.108 41.7994H119.683L119.019 40.701H118.584V41.7994ZM119.038 40.3755C119.361 40.3755 119.647 40.3529 119.647 39.9634C119.647 39.6502 119.365 39.5913 119.102 39.5913H118.583V40.3755H119.038Z" fill="white"/>
<path fill-rule="evenodd" clip-rule="evenodd" d="M116.831 40.5262C116.831 39.2663 117.845 38.337 119.043 38.337C120.231 38.337 121.243 39.2668 121.243 40.5262C121.243 41.7989 120.231 42.7277 119.043 42.7277C117.845 42.7277 116.831 41.7994 116.831 40.5262ZM119.043 42.3617C120.029 42.3617 120.805 41.5836 120.805 40.5262C120.805 39.4877 120.03 38.7025 119.043 38.7025C118.047 38.7025 117.27 39.4877 117.27 40.5262C117.27 41.5841 118.047 42.3617 119.043 42.3617Z" fill="white"/>
</svg>
