<svg width="160" height="90" viewBox="0 0 160 90" fill="none" xmlns="http://www.w3.org/2000/svg">
<path d="M0 0H160V90H0V0Z" fill="#003791"/>
<path d="M108 45.5C108 60.6878 95.6878 73 80.5 73C65.3122 73 53 60.6878 53 45.5C53 30.3122 65.3122 18 80.5 18C95.6878 18 108 30.3122 108 45.5Z" fill="white"/>
<path d="M98.581 53.0605C97.8464 53.9881 96.0493 54.6492 96.0493 54.6492L82.6679 59.4616V55.9117L92.5147 52.3976C93.6337 51.9979 93.8045 51.4307 92.8957 51.1335C91.9903 50.8345 90.3485 50.9199 89.2296 51.3231L82.6696 53.6362V49.9547L83.0454 49.8266C83.0454 49.8266 84.9417 49.1535 87.6084 48.858C90.2734 48.5641 93.5397 48.899 96.1022 49.871C98.9893 50.785 99.3139 52.1328 98.581 53.0605ZM83.9406 47.0181V37.9434C83.9406 36.8774 83.7458 35.8968 82.7465 35.6201C81.9828 35.3741 81.5079 36.0847 81.5079 37.149V59.875L75.3852 57.9292V30.8333C77.9887 31.3168 81.7812 32.4614 83.8193 33.1481C89.0041 34.9299 90.762 37.149 90.762 42.1459C90.762 47.0164 87.7587 48.8631 83.9423 47.0181H83.9406ZM64.153 55.5427C61.189 54.7056 60.6953 52.9631 62.0466 51.9603C63.2954 51.0344 65.4188 50.3374 65.4188 50.3374L74.1963 47.2111V50.7747L67.8805 53.0382C66.765 53.438 66.5925 54.0052 67.4996 54.3024C68.4067 54.6014 70.0501 54.516 71.1674 54.1145L74.1963 53.0143V56.2004L73.5932 56.3029C70.5626 56.7983 67.3339 56.5916 64.153 55.5427Z" fill="#003791"/>
</svg>
