<svg width="160" height="90" viewBox="0 0 160 90" fill="none" xmlns="http://www.w3.org/2000/svg">
<path d="M0 0H160V90H0V0Z" fill="#145C8F"/>
<path d="M80.0093 21.6667C67.7593 21.6667 57.712 31.1167 56.76 43.1263L69.2667 48.297C70.326 47.5737 71.6047 47.149 72.9837 47.149C73.1073 47.149 73.2263 47.156 73.35 47.1607L78.9127 39.106V38.9917C78.9127 34.1383 82.856 30.195 87.7093 30.195C92.5603 30.195 96.506 34.143 96.506 38.9963C96.506 43.8497 92.558 47.7953 87.7093 47.7953H87.5063L79.58 53.456C79.58 53.5563 79.587 53.6613 79.587 53.7663C79.587 57.411 76.6423 60.3697 72.9953 60.3697C69.8173 60.3697 67.1317 58.0877 66.5203 55.066L57.565 51.3583C60.337 61.1513 69.3297 68.3333 80.0117 68.3333C92.8963 68.3333 103.34 57.887 103.34 45C103.34 32.1153 92.894 21.6667 80.0093 21.6667ZM68.5153 55.8897C69.024 56.9443 69.9037 57.831 71.068 58.3187C73.5903 59.3687 76.5 58.1717 77.5477 55.647C78.061 54.422 78.061 53.0803 77.557 51.8553C77.0553 50.6303 76.0987 49.676 74.8807 49.1673C73.6673 48.661 72.3723 48.682 71.229 49.109L74.19 50.334C76.0497 51.111 76.9293 53.2507 76.15 55.108C75.38 56.9677 73.2403 57.8497 71.3807 57.075L68.5153 55.8897ZM93.5753 38.9847C93.5753 35.753 90.9433 33.1233 87.7117 33.1233C84.4753 33.1233 81.8503 35.753 81.8503 38.9847C81.8503 42.2233 84.4753 44.8483 87.7117 44.8483C90.9457 44.8483 93.573 42.2233 93.573 38.9847H93.5753ZM87.7233 34.57C90.15 34.57 92.1287 36.5417 92.1287 38.9753C92.1287 41.409 90.1523 43.3807 87.7233 43.3807C85.2873 43.3807 83.318 41.409 83.318 38.9753C83.318 36.5417 85.2897 34.57 87.7233 34.57Z" fill="white"/>
</svg>
