<svg width="160" height="90" viewBox="0 0 160 90" fill="none" xmlns="http://www.w3.org/2000/svg">
<path d="M0 0H160V90H0V0Z" fill="#1B8A19"/>
<path d="M78.2565 67.6355C74.8011 67.3072 71.303 66.0764 68.298 64.1316C65.78 62.5027 65.2118 61.832 65.2118 60.4953C65.2118 57.8099 68.1886 53.1058 73.282 47.7444C76.1738 44.6986 80.2026 41.1305 80.6379 41.2267C81.4856 41.4144 88.2577 47.9667 90.7934 51.0518C94.8025 55.9282 96.6448 59.9223 95.7085 61.7027C94.9969 63.056 90.5802 65.7015 87.336 66.7177C84.6615 67.5554 81.1493 67.9101 78.2565 67.6355ZM61.8106 57.7034C59.718 54.519 58.6607 51.3843 58.1509 46.8503C57.982 45.3533 58.0414 44.4974 58.533 41.4237C59.1445 37.5971 61.343 33.1655 63.9861 30.4403C65.1112 29.282 65.2112 29.251 66.5834 29.7112C68.2464 30.2697 70.0242 31.488 72.782 33.9618L74.3929 35.4066L73.5119 36.4771C69.4309 41.4465 65.1237 48.4947 63.5023 52.8539C62.6213 55.2223 62.2668 57.601 62.6473 58.5913C62.9028 59.2604 62.6682 59.0112 61.808 57.7049L61.8106 57.7034ZM98.5399 58.2448C98.7468 57.2437 98.4851 55.4059 97.8726 53.5515C96.5458 49.5362 92.1098 42.0665 88.0366 36.9874L86.7542 35.3885L88.1419 34.1252C89.953 32.4757 91.2105 31.488 92.568 30.6487C93.6383 29.9868 95.1684 29.4009 95.8263 29.4009C96.2314 29.4009 97.6593 30.8747 98.8115 32.4777C100.597 34.9599 101.909 37.9746 102.574 41.1083C103.005 43.1354 103.041 47.4687 102.644 49.4907C102.315 51.1495 101.627 53.2997 100.96 54.7585C100.454 55.8511 99.2082 57.9738 98.6608 58.6647C98.3793 59.02 98.3793 59.0194 98.5357 58.2531L98.5399 58.2448ZM78.6266 28.6428C76.7467 27.6965 73.8471 26.6804 72.2456 26.4063C71.6846 26.3107 70.7269 26.2564 70.1185 26.2874C68.7964 26.3536 68.8553 26.2853 70.9751 25.292C72.7372 24.4661 74.2073 23.9806 76.204 23.5648C78.4483 23.0968 82.6685 23.0917 84.8774 23.5534C87.2625 24.0525 90.0719 25.0893 91.6547 26.0563L92.126 26.3427L91.0468 26.289C88.901 26.1814 85.7741 27.0414 82.4167 28.6609C81.4043 29.1501 80.5243 29.54 80.4596 29.5297C80.3955 29.5173 79.5702 29.1186 78.6245 28.6428L78.6266 28.6428Z" fill="white"/>
</svg>
